<?xml version="1.0" encoding="utf-8"?>
<!-- Generator: Adobe Illustrator 26.5.1, SVG Export Plug-In . SVG Version: 6.00 Build 0)  -->
<svg version="1.1" id="Layer_1" xmlns="http://www.w3.org/2000/svg" xmlns:xlink="http://www.w3.org/1999/xlink" x="0px" y="0px"
	 viewBox="0 0 792 612" style="enable-background:new 0 0 792 612;" xml:space="preserve">
<style type="text/css">
	.st0{fill:#EE7623;}
	.st1{fill:#1B355D;}
	.st2{fill:#B1B1B1;}
</style>
<g>
	<g>
		<g>
			<polygon class="st0" points="57.6,387.5 94.1,387.5 94.1,380.3 79.8,380.3 94.1,372.3 94.1,363.8 73.8,375.4 58.1,364.7 
				58.1,373 69.4,380.3 57.6,380.3 			"/>
			<path class="st0" d="M64.4,347.8v6.3h29.7v7.2h-36v-7.2h0.8l-1.2-8.4c0-4.2,2.3-5.1,4.6-5.1h31.9v7.2H64.4z"/>
		</g>
		<g>
			<path class="st0" d="M87.8,328v-6.3H58.1v-7.2h36v6.8H93l1.6,8.8c0,4.2-2.3,5.1-4.6,5.1H58.1V328H87.8z"/>
			<path class="st0" d="M58.1,307.7H46.8v-7.2h11.2v-5.9h6v5.9h24v-4.6h6v7.1c0,3.6-2.1,4.7-4.5,4.7H64.1v4.4h-6V307.7z"/>
		</g>
		<g>
			<path class="st0" d="M67.9,285.9l9.9-10.5c1.3-1.5,2.8-1.8,4.2-1.8h7.6c2.4,0,4.6,0.8,4.6,4.1v11.1c0,3.3-2.3,4.1-4.6,4.1h-7
				v-7.2h5.5v-4.9h-4.9L72.5,292c-0.7,0.8-2.2,1.1-3.4,1.1h-6.4c-2.3,0-4.5-0.8-4.5-4.1v-11.2c0-3.3,2.3-4.3,4.5-4.3h6.8v7.2h-5.3
				v5.2H67.9z"/>
			<path class="st0" d="M64.1,255.8v6.3h24v-6.3H64.1z M89.5,248.6c2.4,0,4.6,1.3,4.6,4.9v11.2c0,3.6-2.1,4.6-4.6,4.6H62.6
				c-2.4,0-4.5-0.9-4.5-4.6v-11.2c0-3.6,2.1-4.9,4.5-4.9H89.5z"/>
			<path class="st0" d="M64.4,229.6v6.3h29.7v7.2h-36v-7.2h0.8l-1.2-8.4c0-4.2,2.3-5.1,4.6-5.1h31.9v7.2H64.4z"/>
		</g>
	</g>
	<path class="st1" d="M209.4,222.9l-18.4,68.5h-9.3l-14.7-53.1l-14.8,53.1H143l-18.4-68.5h9.4l14,53.6l14.7-53.6h8.9l14.8,53.8
		l14-53.8H209.4z"/>
	<path class="st1" d="M265.4,283.2v8.3h-45.8v-68.5h44.8v8.3h-35.8v21.1h30.7v8.3h-30.7v22.7H265.4z"/>
	<path class="st1" d="M274.3,272h9.1c0,8.3,5.3,12.4,15.7,12.4c10,0,15-3.7,15-11c0-7.4-4.4-10.8-17-12.5
		c-15.7-2.1-21.6-7.5-21.6-19.2c0-13.1,8.4-19.9,23.8-19.9c15.1,0,22.8,6.6,22.8,20H313c0-8-4.5-11.8-14-11.8
		c-9.4,0-14.5,3.8-14.5,10.8c0,6.8,4.2,10.1,15.8,11.6c16.5,2.1,22.8,7.8,22.8,20.2c0,13.4-8.1,20-24.1,20
		C282.7,292.6,274.3,285.8,274.3,272z"/>
	<path class="st1" d="M377,231.3h-20.2v60.1h-9.1v-60.1h-20.2v-8.4H377V231.3z"/>
	<path class="st1" d="M468.2,244c0,14.7-6.8,21-22.9,21h-16.7v26.5h-9.1v-68.5h25.8C461.4,222.9,468.2,229.3,468.2,244z M459.2,244
		c0-9.2-3.8-12.8-14.4-12.8h-16.1v25.5h16.1C455.4,256.7,459.2,253.1,459.2,244z"/>
	<path class="st1" d="M510.7,273.9h-27.6l-6.2,17.5h-9.4l25-68.5h9.2l25,68.5H517L510.7,273.9z M486,265.6h21.8l-10.9-31.1
		L486,265.6z"/>
	<path class="st1" d="M561.9,263.6h-15v27.8h-9.1v-68.5h26.3c15.6,0,22.1,5.9,22.1,20.3c0,11.7-4.2,17.8-14.2,19.7l16.7,28.4h-10.5
		L561.9,263.6z M546.9,255.3h16.4c10.3,0,13.8-3.3,13.8-12.1c0-8.8-3.5-12.1-13.8-12.1h-16.4V255.3z"/>
	<path class="st1" d="M623.6,257.9l-12.4,13.8v19.7h-9.1v-68.5h9.1v36.4l31.8-36.4h11.2l-24.4,28l24.7,40.5h-10.6L623.6,257.9z"/>
	<path class="st1" d="M125.7,320h26.5c14.7,0,21.8,5.5,21.8,17.7c0,7.7-2.7,12.5-9,14.8v0.2c7.9,2.4,11.3,7.8,11.3,16.8
		c0,12.9-7,18.9-22.1,18.9h-28.5V320z M151.6,349.4c9.6,0,13.4-2.9,13.4-10.5c0-7.7-3.9-10.7-13.5-10.7h-16.7v21.2H151.6z
		 M152.9,380.2c10.3,0,14.3-3.3,14.3-11.3c0-8.2-4.2-11.3-15.4-11.3h-17v22.6H152.9z"/>
	<path class="st1" d="M214.2,360.7h-15v27.8h-9.1V320h26.3c15.6,0,22.1,5.9,22.1,20.3c0,11.7-4.2,17.8-14.2,19.7l16.7,28.4h-10.5
		L214.2,360.7z M199.2,352.4h16.4c10.3,0,13.8-3.3,13.8-12.1s-3.5-12.1-13.8-12.1h-16.4V352.4z"/>
	<path class="st1" d="M288.5,371h-27.6l-6.2,17.5h-9.4l25-68.5h9.2l25,68.5h-9.7L288.5,371z M263.9,362.7h21.8l-10.9-31.1
		L263.9,362.7z"/>
	<path class="st1" d="M383,388.5h-9.1v-56.8l-22,56.8h-6.5l-22.1-57v57h-8.8V320h13.6l20.6,53.8l20.6-53.8H383V388.5z"/>
	<path class="st1" d="M401.5,320H428c14.7,0,21.8,5.5,21.8,17.7c0,7.7-2.7,12.5-9,14.8v0.2c7.9,2.4,11.3,7.8,11.3,16.8
		c0,12.9-7,18.9-22.1,18.9h-28.5V320z M427.4,349.4c9.6,0,13.4-2.9,13.4-10.5c0-7.7-3.9-10.7-13.5-10.7h-16.7v21.2H427.4z
		 M428.7,380.2c10.3,0,14.3-3.3,14.3-11.3c0-8.2-4.2-11.3-15.4-11.3h-17v22.6H428.7z"/>
	<path class="st1" d="M508.1,380.1v8.4H466V320h9.1v60.1H508.1z"/>
	<path class="st1" d="M563.9,380.2v8.3H518V320h44.8v8.3h-35.8v21.1h30.7v8.3h-30.7v22.7H563.9z"/>
	<path class="st1" d="M617.8,328.4h-20.2v60.1h-9.1v-60.1h-20.2V320h49.6V328.4z"/>
	<path class="st1" d="M623.8,362.4v-16.3c0-18.1,8.8-27.3,26.6-27.3S677,328,677,346.1v16.3c0,18.1-8.8,27.3-26.6,27.3
		S623.8,380.5,623.8,362.4z M667.9,362.4v-16.3c0-13.1-5.4-19-17.5-19s-17.5,5.9-17.5,19v16.3c0,13.1,5.4,19,17.5,19
		S667.9,375.5,667.9,362.4z"/>
	<path class="st1" d="M743.6,320v68.5h-8.9l-33.4-55.2v55.2h-8.8V320h10.8l31.5,52.1V320H743.6z"/>
	<g>
		<path class="st1" d="M720.7,256.5V275H715l-0.2-3.8c-2.2,2.9-5.1,4.4-9.2,4.4c-5.7,0-9.3-3.2-9.3-8.8c0-5.9,3.8-9.2,11.6-9.2h6.1
			v-1.3c0-3.6-1.6-5.4-5.2-5.4c-3.4,0-5.1,1.4-5.2,4.1h-6.4c0.4-6.3,4.3-9.5,11.9-9.5C716.9,245.7,720.7,249.2,720.7,256.5z
			 M714.1,266v-3.6h-5.2c-4.2,0-5.9,1.4-5.9,4c0,2.5,1.5,3.9,4.4,3.9C710.4,270.3,712.6,268.9,714.1,266z"/>
		<path class="st1" d="M742.3,269.7v5.4H737c-5.7,0-8.1-2.7-8.1-9.2v-14.3h-4.5v-5.1h4.6l0.4-7.3h6.1v7.3h6.5v5.1h-6.5v14.1
			c0,3.1,0.8,4,3.5,4H742.3z"/>
	</g>
	<rect x="695.8" y="222.8" class="st2" width="47.8" height="8.5"/>
	<rect x="695.8" y="282.8" class="st2" width="47.8" height="8.5"/>
</g>
</svg>
